<svg width="311" height="38" viewBox="0 0 311 38" fill="none" xmlns="http://www.w3.org/2000/svg">
<path d="M9.85157 37H0.561919V1.70916H9.85157V14.8326H22.8767V1.70916H32.1664V37H22.8767V22.8935H9.85157V37ZM62.0605 37L59.8979 30.4628H47.5117L45.2998 37H35.9119L48.9862 1.70916H59.1606L72.0875 37H62.0605ZM53.8031 11.9327L50.0184 23.1393H57.4894L53.8031 11.9327ZM103.127 25.4494C103.127 32.7238 97.3276 37.4915 88.1362 37.4915C78.9449 37.4915 73.0467 32.6255 72.4077 24.8104H81.7957C81.894 28.1527 84.1058 30.2662 87.9396 30.2662C91.1345 30.2662 93.248 29.0374 93.248 26.8256C93.248 25.3019 91.7243 24.1714 89.6599 23.7782L83.2211 22.5494C77.5686 21.4681 73.8331 18.1749 73.8331 12.4734C73.8331 5.88704 79.633 1.26679 87.5464 1.26679C95.9513 1.26679 101.997 6.08365 102.538 13.7021H93.1497C92.9039 10.5073 90.7413 8.44293 87.6447 8.44293C84.8922 8.44293 83.2211 9.91747 83.2211 11.8344C83.2211 13.4072 84.7939 14.3411 86.6617 14.6852L93.4937 16.0123C99.7852 17.2411 103.127 20.3376 103.127 25.4494ZM117.179 37H107.889V1.70916H117.179V14.8326H130.204V1.70916H139.493V37H130.204V22.8935H117.179V37ZM170.518 37H146.385V1.70916H155.674V28.5951H170.518V37ZM188.618 37.7373C178.444 37.7373 170.432 30.0205 170.432 19.3054C170.432 8.59038 178.444 0.971884 188.618 0.971884C198.842 0.971884 206.853 8.59038 206.853 19.3054C206.853 30.0205 198.842 37.7373 188.618 37.7373ZM188.618 29.4307C194.172 29.4307 197.269 24.8596 197.269 19.3054C197.269 13.7513 194.172 9.2785 188.618 9.2785C183.064 9.2785 179.968 13.7513 179.968 19.3054C179.968 24.8596 183.064 29.4307 188.618 29.4307ZM220.954 37H211.664V1.70916H226.115C235.65 1.70916 241.106 5.98535 241.106 13.5055C241.106 18.0275 238.403 21.763 233.635 23.7782L242.286 37H231.226L224.001 25.2528H220.954V37ZM220.954 9.37681V17.5851H225.722C229.85 17.5851 231.767 16.3072 231.767 13.5055C231.767 10.7039 229.85 9.37681 225.722 9.37681H220.954ZM260.226 37H246.464V1.70916H260.226C271.384 1.70916 278.412 8.88529 278.412 19.158C278.412 29.4307 271.138 37 260.226 37ZM255.754 9.72087V28.9883H259.686C265.83 28.9883 268.877 25.7934 268.877 19.158C268.877 12.9157 265.731 9.72087 259.686 9.72087H255.754ZM310.129 37H281.375V29.5781L298.234 9.72087H281.179V1.70916H309.637V9.2785L292.68 28.9883H310.129V37Z" fill="url(#paint0_linear_1136_1069)"/>
<defs>
<linearGradient id="paint0_linear_1136_1069" x1="-24" y1="18" x2="333.12" y2="18" gradientUnits="userSpaceOnUse">
<stop stop-color="white"/>
<stop offset="1" stop-color="#507C94"/>
</linearGradient>
</defs>
</svg>
