<svg width="360" height="31" viewBox="0 0 360 31" fill="none" xmlns="http://www.w3.org/2000/svg">
<rect width="91" height="31" rx="6" fill="white" fill-opacity="0.2"/>
<path d="M26.8944 21V12.2727H28.2111V16.0653H32.562V12.2727H33.883V21H32.562V17.1946H28.2111V21H26.8944ZM44.3816 16.6364C44.3816 17.5682 44.2111 18.3693 43.8702 19.0398C43.5293 19.7074 43.062 20.2216 42.4682 20.5824C41.8773 20.9403 41.2054 21.1193 40.4526 21.1193C39.6969 21.1193 39.0222 20.9403 38.4284 20.5824C37.8375 20.2216 37.3716 19.706 37.0307 19.0355C36.6898 18.3651 36.5194 17.5653 36.5194 16.6364C36.5194 15.7045 36.6898 14.9048 37.0307 14.2372C37.3716 13.5668 37.8375 13.0526 38.4284 12.6946C39.0222 12.3338 39.6969 12.1534 40.4526 12.1534C41.2054 12.1534 41.8773 12.3338 42.4682 12.6946C43.062 13.0526 43.5293 13.5668 43.8702 14.2372C44.2111 14.9048 44.3816 15.7045 44.3816 16.6364ZM43.0776 16.6364C43.0776 15.9261 42.9625 15.3281 42.7324 14.8423C42.5051 14.3537 42.1926 13.9844 41.7949 13.7344C41.4 13.4815 40.9526 13.3551 40.4526 13.3551C39.9498 13.3551 39.5009 13.4815 39.106 13.7344C38.7111 13.9844 38.3986 14.3537 38.1685 14.8423C37.9412 15.3281 37.8276 15.9261 37.8276 16.6364C37.8276 17.3466 37.9412 17.946 38.1685 18.4347C38.3986 18.9205 38.7111 19.2898 39.106 19.5426C39.5009 19.7926 39.9498 19.9176 40.4526 19.9176C40.9526 19.9176 41.4 19.7926 41.7949 19.5426C42.1926 19.2898 42.5051 18.9205 42.7324 18.4347C42.9625 17.946 43.0776 17.3466 43.0776 16.6364ZM47.0233 12.2727H48.6213L51.3997 19.0568H51.502L54.2804 12.2727H55.8784V21H54.6255V14.6847H54.5446L51.9707 20.9872H50.9309L48.3571 14.6804H48.2761V21H47.0233V12.2727ZM58.7928 21V12.2727H64.2644V13.4062H60.1096V16.0653H63.9789V17.1946H60.1096V19.8665H64.3155V21H58.7928Z" fill="#CACACA"/>
<path d="M124.375 21.25H122.628L126.554 10.3409H128.455L132.381 21.25H130.634L127.55 12.3224H127.464L124.375 21.25ZM124.668 16.978H130.335V18.3629H124.668V16.978ZM134.956 21.25V10.3409H138.951C139.725 10.3409 140.366 10.4687 140.874 10.7244C141.382 10.9766 141.762 11.3192 142.014 11.7525C142.266 12.1822 142.392 12.6669 142.392 13.2067C142.392 13.6612 142.309 14.0447 142.142 14.3572C141.975 14.6662 141.751 14.9148 141.471 15.103C141.194 15.2876 140.888 15.4226 140.555 15.5078V15.6143C140.917 15.6321 141.27 15.7493 141.615 15.9659C141.963 16.179 142.25 16.4826 142.478 16.8768C142.705 17.271 142.819 17.7504 142.819 18.315C142.819 18.8725 142.687 19.3732 142.424 19.8171C142.165 20.2575 141.764 20.6072 141.221 20.8665C140.677 21.1222 139.983 21.25 139.138 21.25H134.956ZM136.602 19.8384H138.978C139.766 19.8384 140.331 19.6857 140.672 19.3803C141.013 19.0749 141.183 18.6932 141.183 18.2351C141.183 17.8906 141.096 17.5746 140.922 17.2869C140.748 16.9993 140.5 16.7702 140.176 16.5998C139.857 16.4293 139.477 16.3441 139.037 16.3441H136.602V19.8384ZM136.602 15.0604H138.808C139.177 15.0604 139.509 14.9893 139.804 14.8473C140.102 14.7053 140.338 14.5064 140.512 14.2507C140.69 13.9915 140.778 13.6861 140.778 13.3345C140.778 12.8835 140.62 12.5053 140.304 12.1999C139.988 11.8945 139.504 11.7418 138.85 11.7418H136.602V15.0604ZM155.247 15.7955C155.247 16.9602 155.034 17.9616 154.608 18.7997C154.182 19.6342 153.597 20.277 152.855 20.728C152.117 21.1754 151.277 21.3991 150.336 21.3991C149.391 21.3991 148.548 21.1754 147.806 20.728C147.067 20.277 146.485 19.6325 146.058 18.7944C145.632 17.9563 145.419 16.9567 145.419 15.7955C145.419 14.6307 145.632 13.631 146.058 12.7965C146.485 11.9585 147.067 11.3157 147.806 10.8683C148.548 10.4173 149.391 10.1918 150.336 10.1918C151.277 10.1918 152.117 10.4173 152.855 10.8683C153.597 11.3157 154.182 11.9585 154.608 12.7965C155.034 13.631 155.247 14.6307 155.247 15.7955ZM153.617 15.7955C153.617 14.9077 153.473 14.1602 153.186 13.5529C152.901 12.9421 152.511 12.4805 152.014 12.168C151.52 11.8519 150.961 11.6939 150.336 11.6939C149.707 11.6939 149.146 11.8519 148.653 12.168C148.159 12.4805 147.768 12.9421 147.481 13.5529C147.197 14.1602 147.055 14.9077 147.055 15.7955C147.055 16.6832 147.197 17.4325 147.481 18.0433C147.768 18.6506 148.159 19.1122 148.653 19.4283C149.146 19.7408 149.707 19.897 150.336 19.897C150.961 19.897 151.52 19.7408 152.014 19.4283C152.511 19.1122 152.901 18.6506 153.186 18.0433C153.473 17.4325 153.617 16.6832 153.617 15.7955ZM165.314 10.3409H166.966V17.516C166.966 18.2795 166.786 18.956 166.428 19.5455C166.069 20.1314 165.565 20.593 164.915 20.9304C164.265 21.2642 163.503 21.4311 162.63 21.4311C161.76 21.4311 161 21.2642 160.35 20.9304C159.7 20.593 159.196 20.1314 158.837 19.5455C158.478 18.956 158.299 18.2795 158.299 17.516V10.3409H159.945V17.3828C159.945 17.8764 160.053 18.315 160.27 18.6985C160.49 19.082 160.801 19.3839 161.202 19.604C161.603 19.8207 162.079 19.929 162.63 19.929C163.184 19.929 163.661 19.8207 164.063 19.604C164.467 19.3839 164.776 19.082 164.989 18.6985C165.206 18.315 165.314 17.8764 165.314 17.3828V10.3409ZM169.821 11.7578V10.3409H178.263V11.7578H174.86V21.25H173.219V11.7578H169.821Z" fill="#CACACA"/>
<path d="M298.304 20.25H294.773V9.34091H298.416C299.485 9.34091 300.403 9.5593 301.17 9.99609C301.937 10.4293 302.525 11.0526 302.933 11.8658C303.345 12.6754 303.551 13.6467 303.551 14.7795C303.551 15.9158 303.343 16.8924 302.928 17.7092C302.516 18.5259 301.919 19.1545 301.138 19.5948C300.357 20.0316 299.412 20.25 298.304 20.25ZM296.419 18.8118H298.214C299.045 18.8118 299.735 18.6555 300.286 18.343C300.836 18.027 301.248 17.5707 301.522 16.9741C301.795 16.3739 301.932 15.6424 301.932 14.7795C301.932 13.9237 301.795 13.1974 301.522 12.6009C301.252 12.0043 300.849 11.5515 300.312 11.2425C299.776 10.9336 299.11 10.7791 298.315 10.7791H296.419V18.8118ZM316.074 14.7955C316.074 15.9602 315.861 16.9616 315.435 17.7997C315.009 18.6342 314.425 19.277 313.682 19.728C312.944 20.1754 312.104 20.3991 311.163 20.3991C310.218 20.3991 309.375 20.1754 308.633 19.728C307.894 19.277 307.312 18.6325 306.886 17.7944C306.459 16.9563 306.246 15.9567 306.246 14.7955C306.246 13.6307 306.459 12.631 306.886 11.7965C307.312 10.9585 307.894 10.3157 308.633 9.86825C309.375 9.41726 310.218 9.19176 311.163 9.19176C312.104 9.19176 312.944 9.41726 313.682 9.86825C314.425 10.3157 315.009 10.9585 315.435 11.7965C315.861 12.631 316.074 13.6307 316.074 14.7955ZM314.444 14.7955C314.444 13.9077 314.3 13.1602 314.013 12.5529C313.729 11.9421 313.338 11.4805 312.841 11.168C312.347 10.8519 311.788 10.6939 311.163 10.6939C310.534 10.6939 309.973 10.8519 309.48 11.168C308.986 11.4805 308.595 11.9421 308.308 12.5529C308.024 13.1602 307.882 13.9077 307.882 14.7955C307.882 15.6832 308.024 16.4325 308.308 17.0433C308.595 17.6506 308.986 18.1122 309.48 18.4283C309.973 18.7408 310.534 18.897 311.163 18.897C311.788 18.897 312.347 18.7408 312.841 18.4283C313.338 18.1122 313.729 17.6506 314.013 17.0433C314.3 16.4325 314.444 15.6832 314.444 14.7955ZM328.187 12.8885H326.525C326.461 12.5334 326.342 12.2209 326.168 11.951C325.994 11.6811 325.781 11.4521 325.529 11.2638C325.277 11.0756 324.994 10.9336 324.682 10.8377C324.373 10.7418 324.045 10.6939 323.697 10.6939C323.068 10.6939 322.505 10.8519 322.008 11.168C321.514 11.484 321.124 11.9474 320.836 12.5582C320.552 13.169 320.41 13.9148 320.41 14.7955C320.41 15.6832 320.552 16.4325 320.836 17.0433C321.124 17.6541 321.516 18.1158 322.013 18.4283C322.51 18.7408 323.07 18.897 323.691 18.897C324.036 18.897 324.362 18.8509 324.671 18.7585C324.984 18.6626 325.266 18.5224 325.518 18.3377C325.77 18.1531 325.983 17.9276 326.157 17.6612C326.335 17.3913 326.458 17.0824 326.525 16.7344L328.187 16.7397C328.098 17.2759 327.926 17.7695 327.67 18.2205C327.418 18.668 327.093 19.055 326.695 19.3817C326.301 19.7049 325.85 19.9553 325.343 20.1328C324.835 20.3104 324.281 20.3991 323.681 20.3991C322.736 20.3991 321.894 20.1754 321.156 19.728C320.417 19.277 319.835 18.6325 319.409 17.7944C318.986 16.9563 318.775 15.9567 318.775 14.7955C318.775 13.6307 318.988 12.631 319.414 11.7965C319.84 10.9585 320.422 10.3157 321.161 9.86825C321.9 9.41726 322.74 9.19176 323.681 9.19176C324.259 9.19176 324.799 9.27521 325.3 9.44212C325.804 9.60547 326.257 9.84695 326.658 10.1665C327.059 10.4826 327.392 10.8697 327.654 11.3278C327.917 11.7823 328.095 12.3026 328.187 12.8885ZM337.106 12.2067C337.05 11.7024 336.815 11.3118 336.403 11.0348C335.991 10.7543 335.473 10.614 334.848 10.614C334.4 10.614 334.013 10.685 333.687 10.8271C333.36 10.9656 333.106 11.1573 332.925 11.4023C332.747 11.6438 332.659 11.919 332.659 12.228C332.659 12.4872 332.719 12.7109 332.84 12.8991C332.964 13.0874 333.126 13.2454 333.324 13.3732C333.527 13.4975 333.744 13.6023 333.974 13.6875C334.205 13.7692 334.427 13.8366 334.64 13.8899L335.706 14.1669C336.054 14.2521 336.41 14.3675 336.776 14.5131C337.142 14.6587 337.481 14.8505 337.794 15.0884C338.106 15.3263 338.358 15.6211 338.55 15.9727C338.745 16.3242 338.843 16.745 338.843 17.2351C338.843 17.853 338.683 18.4016 338.364 18.881C338.047 19.3604 337.588 19.7386 336.984 20.0156C336.384 20.2926 335.658 20.4311 334.805 20.4311C333.989 20.4311 333.282 20.3015 332.685 20.0423C332.089 19.783 331.622 19.4155 331.284 18.9396C330.947 18.4602 330.761 17.892 330.725 17.2351H332.376C332.408 17.6293 332.536 17.9577 332.76 18.2205C332.987 18.4798 333.277 18.6733 333.628 18.8011C333.983 18.9254 334.372 18.9876 334.795 18.9876C335.26 18.9876 335.674 18.9148 336.036 18.7692C336.402 18.62 336.689 18.4141 336.899 18.1513C337.108 17.8849 337.213 17.5742 337.213 17.2191C337.213 16.896 337.121 16.6314 336.936 16.4254C336.755 16.2195 336.508 16.049 336.196 15.9141C335.887 15.7791 335.537 15.6602 335.146 15.5572L333.857 15.2056C332.984 14.9677 332.291 14.6179 331.78 14.1562C331.272 13.6946 331.018 13.0838 331.018 12.3239C331.018 11.6953 331.188 11.1467 331.529 10.6779C331.87 10.2092 332.332 9.84517 332.914 9.58594C333.497 9.32315 334.154 9.19176 334.885 9.19176C335.624 9.19176 336.275 9.32138 336.84 9.58061C337.408 9.83984 337.856 10.1967 338.182 10.6513C338.509 11.1023 338.68 11.6207 338.694 12.2067H337.106Z" fill="#CACACA"/>
<path d="M230.22 21.25V10.3409H234.215C234.989 10.3409 235.63 10.4687 236.138 10.7244C236.646 10.9766 237.026 11.3192 237.278 11.7525C237.53 12.1822 237.656 12.6669 237.656 13.2067C237.656 13.6612 237.573 14.0447 237.406 14.3572C237.239 14.6662 237.015 14.9148 236.735 15.103C236.458 15.2876 236.152 15.4226 235.818 15.5078V15.6143C236.181 15.6321 236.534 15.7493 236.878 15.9659C237.226 16.179 237.514 16.4826 237.741 16.8768C237.969 17.271 238.082 17.7504 238.082 18.315C238.082 18.8725 237.951 19.3732 237.688 19.8171C237.429 20.2575 237.028 20.6072 236.484 20.8665C235.941 21.1222 235.247 21.25 234.401 21.25H230.22ZM231.866 19.8384H234.242C235.03 19.8384 235.595 19.6857 235.936 19.3803C236.276 19.0749 236.447 18.6932 236.447 18.2351C236.447 17.8906 236.36 17.5746 236.186 17.2869C236.012 16.9993 235.763 16.7702 235.44 16.5998C235.121 16.4293 234.741 16.3441 234.3 16.3441H231.866V19.8384ZM231.866 15.0604H234.071C234.441 15.0604 234.773 14.9893 235.067 14.8473C235.366 14.7053 235.602 14.5064 235.776 14.2507C235.953 13.9915 236.042 13.6861 236.042 13.3345C236.042 12.8835 235.884 12.5053 235.568 12.1999C235.252 11.8945 234.767 11.7418 234.114 11.7418H231.866V15.0604ZM248.05 10.3409H249.701V17.516C249.701 18.2795 249.522 18.956 249.163 19.5455C248.804 20.1314 248.3 20.593 247.65 20.9304C247 21.2642 246.239 21.4311 245.365 21.4311C244.495 21.4311 243.735 21.2642 243.085 20.9304C242.435 20.593 241.931 20.1314 241.572 19.5455C241.214 18.956 241.034 18.2795 241.034 17.516V10.3409H242.68V17.3828C242.68 17.8764 242.789 18.315 243.005 18.6985C243.225 19.082 243.536 19.3839 243.938 19.604C244.339 19.8207 244.815 19.929 245.365 19.929C245.919 19.929 246.397 19.8207 246.798 19.604C247.203 19.3839 247.512 19.082 247.725 18.6985C247.941 18.315 248.05 17.8764 248.05 17.3828V10.3409ZM252.252 10.3409H254.122L256.972 15.3001H257.089L259.939 10.3409H261.809L257.851 16.9673V21.25H256.21V16.9673L252.252 10.3409Z" fill="#CACACA"/>
</svg>
