<svg width="166" height="45" viewBox="0 0 166 45" fill="none" xmlns="http://www.w3.org/2000/svg">
<g filter="url(#filter0_ddi_1136_1070)">
<g clip-path="url(#clip0_1136_1070)">
<rect x="5.90039" y="6" width="154.2" height="33" rx="4.10446" fill="url(#paint0_linear_1136_1070)"/>
<path d="M28.9789 20.9337H26.8509C26.812 20.6584 26.7327 20.4139 26.6128 20.2001C26.493 19.9831 26.3391 19.7985 26.1513 19.6462C25.9634 19.494 25.7464 19.3774 25.5002 19.2964C25.2573 19.2154 24.9933 19.175 24.7083 19.175C24.1933 19.175 23.7447 19.3029 23.3625 19.5588C22.9803 19.8114 22.6839 20.1807 22.4734 20.6665C22.2629 21.1491 22.1576 21.7354 22.1576 22.4253C22.1576 23.1346 22.2629 23.7306 22.4734 24.2132C22.6872 24.6958 22.9852 25.0602 23.3674 25.3064C23.7496 25.5525 24.1917 25.6756 24.6937 25.6756C24.9755 25.6756 25.2363 25.6384 25.476 25.5639C25.7189 25.4894 25.9343 25.3809 26.1221 25.2384C26.31 25.0926 26.4655 24.9161 26.5886 24.7088C26.7149 24.5015 26.8023 24.265 26.8509 23.9994L28.9789 24.0092C28.9239 24.4659 28.7862 24.9064 28.566 25.3307C28.3489 25.7517 28.0558 26.1291 27.6866 26.4627C27.3206 26.7931 26.8833 27.0554 26.3748 27.2498C25.8695 27.4409 25.2978 27.5364 24.6597 27.5364C23.7722 27.5364 22.9787 27.3356 22.2791 26.934C21.5827 26.5323 21.0321 25.9509 20.6272 25.1898C20.2255 24.4286 20.0247 23.5071 20.0247 22.4253C20.0247 21.3402 20.2288 20.4171 20.6369 19.6559C21.045 18.8948 21.5989 18.315 22.2985 17.9166C22.9981 17.515 23.7852 17.3142 24.6597 17.3142C25.2363 17.3142 25.7707 17.3951 26.263 17.5571C26.7586 17.719 27.1975 17.9555 27.5797 18.2664C27.9619 18.5741 28.2728 18.9515 28.5125 19.3984C28.7554 19.8454 28.9109 20.3572 28.9789 20.9337ZM39.6312 22.4253C39.6312 23.5104 39.4255 24.4335 39.0142 25.1946C38.606 25.9558 38.0489 26.5372 37.3428 26.9388C36.64 27.3372 35.8497 27.5364 34.9719 27.5364C34.0876 27.5364 33.2941 27.3356 32.5912 26.934C31.8884 26.5323 31.3329 25.9509 30.9248 25.1898C30.5166 24.4286 30.3126 23.5071 30.3126 22.4253C30.3126 21.3402 30.5166 20.4171 30.9248 19.6559C31.3329 18.8948 31.8884 18.315 32.5912 17.9166C33.2941 17.515 34.0876 17.3142 34.9719 17.3142C35.8497 17.3142 36.64 17.515 37.3428 17.9166C38.0489 18.315 38.606 18.8948 39.0142 19.6559C39.4255 20.4171 39.6312 21.3402 39.6312 22.4253ZM37.4983 22.4253C37.4983 21.7224 37.393 21.1297 37.1825 20.6471C36.9752 20.1645 36.6821 19.7985 36.3031 19.5491C35.9242 19.2997 35.4804 19.175 34.9719 19.175C34.4634 19.175 34.0196 19.2997 33.6407 19.5491C33.2617 19.7985 32.967 20.1645 32.7564 20.6471C32.5491 21.1297 32.4455 21.7224 32.4455 22.4253C32.4455 23.1282 32.5491 23.7209 32.7564 24.2035C32.967 24.6861 33.2617 25.0521 33.6407 25.3015C34.0196 25.5509 34.4634 25.6756 34.9719 25.6756C35.4804 25.6756 35.9242 25.5509 36.3031 25.3015C36.6821 25.0521 36.9752 24.6861 37.1825 24.2035C37.393 23.7209 37.4983 23.1282 37.4983 22.4253ZM49.5122 17.4502V27.4004H47.6951L43.3662 21.1378H43.2933V27.4004H41.1896V17.4502H43.0358L47.3307 23.7079H47.4181V17.4502H49.5122ZM59.5729 17.4502V27.4004H57.7558L53.4269 21.1378H53.354V27.4004H51.2503V17.4502H53.0965L57.3914 23.7079H57.4789V17.4502H59.5729ZM61.311 27.4004V17.4502H68.0157V19.1847H63.4147V21.5556H67.6708V23.2901H63.4147V25.6659H68.0352V27.4004H61.311ZM78.4676 20.9337H76.3396C76.3007 20.6584 76.2213 20.4139 76.1015 20.2001C75.9817 19.9831 75.8278 19.7985 75.6399 19.6462C75.4521 19.494 75.2351 19.3774 74.9889 19.2964C74.746 19.2154 74.482 19.175 74.197 19.175C73.682 19.175 73.2334 19.3029 72.8512 19.5588C72.469 19.8114 72.1726 20.1807 71.9621 20.6665C71.7515 21.1491 71.6463 21.7354 71.6463 22.4253C71.6463 23.1346 71.7515 23.7306 71.9621 24.2132C72.1758 24.6958 72.4738 25.0602 72.856 25.3064C73.2382 25.5525 73.6803 25.6756 74.1824 25.6756C74.4642 25.6756 74.7249 25.6384 74.9646 25.5639C75.2075 25.4894 75.4229 25.3809 75.6108 25.2384C75.7987 25.0926 75.9541 24.9161 76.0772 24.7088C76.2035 24.5015 76.291 24.265 76.3396 23.9994L78.4676 24.0092C78.4125 24.4659 78.2749 24.9064 78.0546 25.3307C77.8376 25.7517 77.5445 26.1291 77.1752 26.4627C76.8092 26.7931 76.372 27.0554 75.8634 27.2498C75.3581 27.4409 74.7865 27.5364 74.1484 27.5364C73.2609 27.5364 72.4673 27.3356 71.7677 26.934C71.0713 26.5323 70.5207 25.9509 70.1158 25.1898C69.7142 24.4286 69.5134 23.5071 69.5134 22.4253C69.5134 21.3402 69.7174 20.4171 70.1255 19.6559C70.5337 18.8948 71.0875 18.315 71.7872 17.9166C72.4868 17.515 73.2739 17.3142 74.1484 17.3142C74.7249 17.3142 75.2594 17.3951 75.7517 17.5571C76.2473 17.719 76.6861 17.9555 77.0683 18.2664C77.4505 18.5741 77.7615 18.9515 78.0012 19.3984C78.2441 19.8454 78.3996 20.3572 78.4676 20.9337ZM79.5972 19.1847V17.4502H87.7692V19.1847H84.7229V27.4004H82.6435V19.1847H79.5972ZM94.5213 27.4004L91.6742 17.4502H93.9723L95.6193 24.3638H95.7019L97.519 17.4502H99.4867L101.299 24.3784H101.386L103.033 17.4502H105.331L102.484 27.4004H100.434L98.5393 20.8949H98.4615L96.5716 27.4004H94.5213ZM107.17 27.4004H104.916L108.351 17.4502H111.062L114.492 27.4004H112.238L109.745 19.724H109.668L107.17 27.4004ZM107.029 23.4893H112.354V25.1315H107.029V23.4893ZM115.69 27.4004V17.4502H117.793V25.6659H122.059V27.4004H115.69ZM123.452 27.4004V17.4502H125.556V25.6659H129.822V27.4004H123.452ZM131.215 27.4004V17.4502H137.92V19.1847H133.319V21.5556H137.575V23.2901H133.319V25.6659H137.939V27.4004H131.215ZM139.213 19.1847V17.4502H147.385V19.1847H144.339V27.4004H142.26V19.1847H139.213Z" fill="#78350F"/>
</g>
</g>
<defs>
<filter id="filter0_ddi_1136_1070" x="0.427779" y="0.527389" width="165.145" height="43.9452" filterUnits="userSpaceOnUse" color-interpolation-filters="sRGB">
<feFlood flood-opacity="0" result="BackgroundImageFix"/>
<feColorMatrix in="SourceAlpha" type="matrix" values="0 0 0 0 0 0 0 0 0 0 0 0 0 0 0 0 0 0 127 0" result="hardAlpha"/>
<feOffset dy="1.36815"/>
<feComposite in2="hardAlpha" operator="out"/>
<feColorMatrix type="matrix" values="0 0 0 0 0.470588 0 0 0 0 0.207843 0 0 0 0 0.0588235 0 0 0 1 0"/>
<feBlend mode="normal" in2="BackgroundImageFix" result="effect1_dropShadow_1136_1070"/>
<feColorMatrix in="SourceAlpha" type="matrix" values="0 0 0 0 0 0 0 0 0 0 0 0 0 0 0 0 0 0 127 0" result="hardAlpha"/>
<feMorphology radius="5.47261" operator="dilate" in="SourceAlpha" result="effect2_dropShadow_1136_1070"/>
<feOffset/>
<feComposite in2="hardAlpha" operator="out"/>
<feColorMatrix type="matrix" values="0 0 0 0 1 0 0 0 0 1 0 0 0 0 1 0 0 0 0.05 0"/>
<feBlend mode="normal" in2="effect1_dropShadow_1136_1070" result="effect2_dropShadow_1136_1070"/>
<feBlend mode="normal" in="SourceGraphic" in2="effect2_dropShadow_1136_1070" result="shape"/>
<feColorMatrix in="SourceAlpha" type="matrix" values="0 0 0 0 0 0 0 0 0 0 0 0 0 0 0 0 0 0 127 0" result="hardAlpha"/>
<feOffset dy="1.36815"/>
<feComposite in2="hardAlpha" operator="arithmetic" k2="-1" k3="1"/>
<feColorMatrix type="matrix" values="0 0 0 0 1 0 0 0 0 1 0 0 0 0 1 0 0 0 0.4 0"/>
<feBlend mode="normal" in2="shape" result="effect3_innerShadow_1136_1070"/>
</filter>
<linearGradient id="paint0_linear_1136_1070" x1="5.90039" y1="22.5" x2="160.1" y2="22.5" gradientUnits="userSpaceOnUse">
<stop stop-color="#FFD465"/>
<stop offset="1" stop-color="#F8A528"/>
</linearGradient>
<clipPath id="clip0_1136_1070">
<rect x="5.90039" y="6" width="154.2" height="33" rx="4.10446" fill="white"/>
</clipPath>
</defs>
</svg>
